<svg width="104" height="89" viewBox="0 0 104 89" fill="none" xmlns="http://www.w3.org/2000/svg">
<rect width="11.9048" height="11.8919" rx="5.94595" transform="matrix(0.999991 -0.00422876 -0.00422876 -0.999991 26.4335 57.8684)" fill="#54BAF3"/>
<rect width="11.9048" height="11.8919" rx="5.94595" transform="matrix(0.999991 -0.00422876 -0.00422876 -0.999991 44.0525 57.7939)" fill="#54BAF3"/>
<rect width="11.9048" height="11.8919" rx="5.94595" transform="matrix(0.999991 -0.00422876 -0.00422876 -0.999991 53.1644 72.9772)" fill="#54BAF3"/>
<rect width="11.9048" height="11.8919" rx="5.94595" transform="matrix(0.999991 -0.00422876 -0.00422876 -0.999991 35.5454 73.0516)" fill="#54BAF3"/>
<rect width="11.9048" height="11.8919" rx="5.94595" transform="matrix(0.999991 -0.00422876 -0.00422876 -0.999991 44.1812 88.2368)" fill="#54BAF3"/>
<rect width="11.9048" height="11.8919" rx="5.94595" transform="matrix(0.999991 -0.00422876 -0.00422876 -0.999991 61.6714 57.7194)" fill="#54BAF3"/>
<rect width="11.9048" height="11.8919" rx="5.94595" transform="matrix(0.999991 -0.00422876 -0.00422876 -0.999991 17.7979 42.6831)" fill="#54BAF3"/>
<rect width="11.9048" height="11.8919" rx="5.94595" transform="matrix(0.999991 -0.00422876 -0.00422876 -0.999991 53.0356 42.5342)" fill="#54BAF3"/>
<rect width="11.9048" height="11.8919" rx="5.94595" transform="matrix(0.999991 -0.00422876 -0.00422876 -0.999991 26.3048 27.4254)" fill="#54BAF3"/>
<rect width="11.9048" height="11.8919" rx="5.94595" transform="matrix(0.999991 -0.00422876 -0.00422876 -0.999991 43.9238 27.351)" fill="#54BAF3"/>
<rect width="11.9048" height="11.8919" rx="5.94595" transform="matrix(0.999991 -0.00422876 -0.00422876 -0.999991 8.68591 27.4999)" fill="#54BAF3"/>
<rect width="11.9048" height="11.8919" rx="5.94595" transform="matrix(0.999991 -0.00422876 -0.00422876 -0.999991 35.4166 42.6086)" fill="#54BAF3"/>
<rect width="11.9048" height="11.8919" rx="5.94595" transform="matrix(0.999991 -0.00422876 -0.00422876 -0.999991 70.6545 42.4596)" fill="#54BAF3"/>
<rect width="11.9048" height="11.8919" rx="5.94595" transform="matrix(0.999991 -0.00422876 -0.00422876 -0.999991 79.1615 27.2019)" fill="#54BAF3"/>
<rect width="11.9048" height="11.8919" rx="5.94595" transform="matrix(0.999991 -0.00422876 -0.00422876 -0.999991 61.5426 27.2764)" fill="#54BAF3"/>
<rect width="11.9048" height="11.8919" rx="5.94595" transform="matrix(0.999991 -0.00422876 -0.00422876 -0.999991 88.1447 11.9421)" fill="#54BAF3"/>
<rect width="11.9048" height="11.8919" rx="5.94595" transform="matrix(0.999991 -0.00422876 -0.00422876 -0.999991 35.288 12.1656)" fill="#54BAF3"/>
<rect width="11.9048" height="11.8919" rx="5.94595" transform="matrix(0.999991 -0.00422876 -0.00422876 -0.999991 70.5258 12.0167)" fill="#54BAF3"/>
<rect width="11.9048" height="11.8919" rx="5.94595" transform="matrix(0.999991 -0.00422876 -0.00422876 -0.999991 17.6691 12.2402)" fill="#54BAF3"/>
<rect width="11.9048" height="11.8919" rx="5.94595" transform="matrix(0.999991 -0.00422876 -0.00422876 -0.999991 52.907 12.0912)" fill="#54BAF3"/>
<rect width="11.9048" height="11.8919" rx="5.94595" transform="matrix(0.999991 -0.00422876 -0.00422876 -0.999991 0.0501709 12.3147)" fill="#54BAF3"/>
<rect width="11.9048" height="11.8919" rx="5.94595" transform="matrix(0.999991 -0.00422876 -0.00422876 -0.999991 29.5284 58.3116)" fill="#54BAF3" fill-opacity="0.38"/>
<rect width="11.9048" height="11.8919" rx="5.94595" transform="matrix(0.999991 -0.00422876 -0.00422876 -0.999991 47.1475 58.2372)" fill="#54BAF3" fill-opacity="0.38"/>
<rect width="11.9048" height="11.8919" rx="5.94595" transform="matrix(0.999991 -0.00422876 -0.00422876 -0.999991 56.2594 73.4204)" fill="#54BAF3" fill-opacity="0.38"/>
<rect width="11.9048" height="11.8919" rx="5.94595" transform="matrix(0.999991 -0.00422876 -0.00422876 -0.999991 38.6404 73.4949)" fill="#54BAF3" fill-opacity="0.38"/>
<rect width="11.9048" height="11.8919" rx="5.94595" transform="matrix(0.999991 -0.00422876 -0.00422876 -0.999991 47.2761 88.6801)" fill="#54BAF3" fill-opacity="0.38"/>
<rect width="11.9048" height="11.8919" rx="5.94595" transform="matrix(0.999991 -0.00422876 -0.00422876 -0.999991 64.7664 58.1626)" fill="#54BAF3" fill-opacity="0.38"/>
<rect width="11.9048" height="11.8919" rx="5.94595" transform="matrix(0.999991 -0.00422876 -0.00422876 -0.999991 20.8928 43.1263)" fill="#54BAF3" fill-opacity="0.38"/>
<rect width="11.9048" height="11.8919" rx="5.94595" transform="matrix(0.999991 -0.00422876 -0.00422876 -0.999991 56.1306 42.9774)" fill="#54BAF3" fill-opacity="0.38"/>
<rect width="11.9048" height="11.8919" rx="5.94595" transform="matrix(0.999991 -0.00422876 -0.00422876 -0.999991 29.3998 27.8687)" fill="#54BAF3" fill-opacity="0.38"/>
<rect width="11.9048" height="11.8919" rx="5.94595" transform="matrix(0.999991 -0.00422876 -0.00422876 -0.999991 47.0188 27.7942)" fill="#54BAF3" fill-opacity="0.38"/>
<rect width="11.9048" height="11.8919" rx="5.94595" transform="matrix(0.999991 -0.00422876 -0.00422876 -0.999991 11.7809 27.9431)" fill="#54BAF3" fill-opacity="0.38"/>
<rect width="11.9048" height="11.8919" rx="5.94595" transform="matrix(0.999991 -0.00422876 -0.00422876 -0.999991 38.5116 43.0519)" fill="#54BAF3" fill-opacity="0.38"/>
<rect width="11.9048" height="11.8919" rx="5.94595" transform="matrix(0.999991 -0.00422876 -0.00422876 -0.999991 73.7495 42.9028)" fill="#54BAF3" fill-opacity="0.38"/>
<rect width="11.9048" height="11.8919" rx="5.94595" transform="matrix(0.999991 -0.00422876 -0.00422876 -0.999991 82.2565 27.6451)" fill="#54BAF3" fill-opacity="0.38"/>
<rect width="11.9048" height="11.8919" rx="5.94595" transform="matrix(0.999991 -0.00422876 -0.00422876 -0.999991 64.6376 27.7196)" fill="#54BAF3" fill-opacity="0.38"/>
<rect width="11.9048" height="11.8919" rx="5.94595" transform="matrix(0.999991 -0.00422876 -0.00422876 -0.999991 91.2396 12.3854)" fill="#54BAF3" fill-opacity="0.38"/>
<rect width="11.9048" height="11.8919" rx="5.94595" transform="matrix(0.999991 -0.00422876 -0.00422876 -0.999991 38.3829 12.6089)" fill="#54BAF3" fill-opacity="0.38"/>
<rect width="11.9048" height="11.8919" rx="5.94595" transform="matrix(0.999991 -0.00422876 -0.00422876 -0.999991 73.6207 12.46)" fill="#54BAF3" fill-opacity="0.38"/>
<rect width="11.9048" height="11.8919" rx="5.94595" transform="matrix(0.999991 -0.00422876 -0.00422876 -0.999991 20.764 12.6835)" fill="#54BAF3" fill-opacity="0.38"/>
<rect width="11.9048" height="11.8919" rx="5.94595" transform="matrix(0.999991 -0.00422876 -0.00422876 -0.999991 56.002 12.5344)" fill="#54BAF3" fill-opacity="0.38"/>
<rect width="11.9048" height="11.8919" rx="5.94595" transform="matrix(0.999991 -0.00422876 -0.00422876 -0.999991 3.14514 12.7579)" fill="#54BAF3" fill-opacity="0.38"/>
</svg>
