<svg width="104" height="89" viewBox="0 0 104 89" fill="none" xmlns="http://www.w3.org/2000/svg">
<rect width="11.9048" height="11.8919" rx="5.94595" transform="matrix(0.999991 -0.00422876 -0.00422876 -0.999991 26.4335 57.8684)" fill="#666789"/>
<rect width="11.9048" height="11.8919" rx="5.94595" transform="matrix(0.999991 -0.00422876 -0.00422876 -0.999991 44.0525 57.7939)" fill="#666789"/>
<rect width="11.9048" height="11.8919" rx="5.94595" transform="matrix(0.999991 -0.00422876 -0.00422876 -0.999991 53.1644 72.9771)" fill="#666789"/>
<rect width="11.9048" height="11.8919" rx="5.94595" transform="matrix(0.999991 -0.00422876 -0.00422876 -0.999991 35.5454 73.0515)" fill="#666789"/>
<rect width="11.9048" height="11.8919" rx="5.94595" transform="matrix(0.999991 -0.00422876 -0.00422876 -0.999991 44.1812 88.2368)" fill="#666789"/>
<rect width="11.9048" height="11.8919" rx="5.94595" transform="matrix(0.999991 -0.00422876 -0.00422876 -0.999991 61.6714 57.7195)" fill="#666789"/>
<rect width="11.9048" height="11.8919" rx="5.94595" transform="matrix(0.999991 -0.00422876 -0.00422876 -0.999991 17.7979 42.6831)" fill="#666789"/>
<rect width="11.9048" height="11.8919" rx="5.94595" transform="matrix(0.999991 -0.00422876 -0.00422876 -0.999991 53.0356 42.5342)" fill="#666789"/>
<rect width="11.9048" height="11.8919" rx="5.94595" transform="matrix(0.999991 -0.00422876 -0.00422876 -0.999991 26.3048 27.4255)" fill="#666789"/>
<rect width="11.9048" height="11.8919" rx="5.94595" transform="matrix(0.999991 -0.00422876 -0.00422876 -0.999991 43.9238 27.3508)" fill="#666789"/>
<rect width="11.9048" height="11.8919" rx="5.94595" transform="matrix(0.999991 -0.00422876 -0.00422876 -0.999991 8.68591 27.5)" fill="#666789"/>
<rect width="11.9048" height="11.8919" rx="5.94595" transform="matrix(0.999991 -0.00422876 -0.00422876 -0.999991 35.4166 42.6086)" fill="#666789"/>
<rect width="11.9048" height="11.8919" rx="5.94595" transform="matrix(0.999991 -0.00422876 -0.00422876 -0.999991 70.6545 42.4597)" fill="#666789"/>
<rect width="11.9048" height="11.8919" rx="5.94595" transform="matrix(0.999991 -0.00422876 -0.00422876 -0.999991 79.1615 27.2019)" fill="#666789"/>
<rect width="11.9048" height="11.8919" rx="5.94595" transform="matrix(0.999991 -0.00422876 -0.00422876 -0.999991 61.5426 27.2764)" fill="#666789"/>
<rect width="11.9048" height="11.8919" rx="5.94595" transform="matrix(0.999991 -0.00422876 -0.00422876 -0.999991 88.1447 11.9421)" fill="#666789"/>
<rect width="11.9048" height="11.8919" rx="5.94595" transform="matrix(0.999991 -0.00422876 -0.00422876 -0.999991 35.288 12.1658)" fill="#666789"/>
<rect width="11.9048" height="11.8919" rx="5.94595" transform="matrix(0.999991 -0.00422876 -0.00422876 -0.999991 70.5258 12.0166)" fill="#666789"/>
<rect width="11.9048" height="11.8919" rx="5.94595" transform="matrix(0.999991 -0.00422876 -0.00422876 -0.999991 17.6691 12.2402)" fill="#666789"/>
<rect width="11.9048" height="11.8919" rx="5.94595" transform="matrix(0.999991 -0.00422876 -0.00422876 -0.999991 52.907 12.0911)" fill="#666789"/>
<rect width="11.9048" height="11.8919" rx="5.94595" transform="matrix(0.999991 -0.00422876 -0.00422876 -0.999991 0.0501709 12.3147)" fill="#666789"/>
<rect width="11.9048" height="11.8919" rx="5.94595" transform="matrix(0.999991 -0.00422876 -0.00422876 -0.999991 29.5284 58.3115)" fill="#666789" fill-opacity="0.38"/>
<rect width="11.9048" height="11.8919" rx="5.94595" transform="matrix(0.999991 -0.00422876 -0.00422876 -0.999991 47.1475 58.2371)" fill="#666789" fill-opacity="0.38"/>
<rect width="11.9048" height="11.8919" rx="5.94595" transform="matrix(0.999991 -0.00422876 -0.00422876 -0.999991 56.2594 73.4202)" fill="#666789" fill-opacity="0.38"/>
<rect width="11.9048" height="11.8919" rx="5.94595" transform="matrix(0.999991 -0.00422876 -0.00422876 -0.999991 38.6404 73.4946)" fill="#666789" fill-opacity="0.38"/>
<rect width="11.9048" height="11.8919" rx="5.94595" transform="matrix(0.999991 -0.00422876 -0.00422876 -0.999991 47.2761 88.6799)" fill="#666789" fill-opacity="0.38"/>
<rect width="11.9048" height="11.8919" rx="5.94595" transform="matrix(0.999991 -0.00422876 -0.00422876 -0.999991 64.7664 58.1626)" fill="#666789" fill-opacity="0.38"/>
<rect width="11.9048" height="11.8919" rx="5.94595" transform="matrix(0.999991 -0.00422876 -0.00422876 -0.999991 20.8928 43.1262)" fill="#666789" fill-opacity="0.38"/>
<rect width="11.9048" height="11.8919" rx="5.94595" transform="matrix(0.999991 -0.00422876 -0.00422876 -0.999991 56.1306 42.9773)" fill="#666789" fill-opacity="0.38"/>
<rect width="11.9048" height="11.8919" rx="5.94595" transform="matrix(0.999991 -0.00422876 -0.00422876 -0.999991 29.3998 27.8687)" fill="#666789" fill-opacity="0.38"/>
<rect width="11.9048" height="11.8919" rx="5.94595" transform="matrix(0.999991 -0.00422876 -0.00422876 -0.999991 47.0188 27.7939)" fill="#666789" fill-opacity="0.38"/>
<rect width="11.9048" height="11.8919" rx="5.94595" transform="matrix(0.999991 -0.00422876 -0.00422876 -0.999991 11.7809 27.9431)" fill="#666789" fill-opacity="0.38"/>
<rect width="11.9048" height="11.8919" rx="5.94595" transform="matrix(0.999991 -0.00422876 -0.00422876 -0.999991 38.5116 43.0518)" fill="#666789" fill-opacity="0.38"/>
<rect width="11.9048" height="11.8919" rx="5.94595" transform="matrix(0.999991 -0.00422876 -0.00422876 -0.999991 73.7495 42.9028)" fill="#666789" fill-opacity="0.38"/>
<rect width="11.9048" height="11.8919" rx="5.94595" transform="matrix(0.999991 -0.00422876 -0.00422876 -0.999991 82.2565 27.645)" fill="#666789" fill-opacity="0.38"/>
<rect width="11.9048" height="11.8919" rx="5.94595" transform="matrix(0.999991 -0.00422876 -0.00422876 -0.999991 64.6376 27.7195)" fill="#666789" fill-opacity="0.38"/>
<rect width="11.9048" height="11.8919" rx="5.94595" transform="matrix(0.999991 -0.00422876 -0.00422876 -0.999991 91.2396 12.3853)" fill="#666789" fill-opacity="0.38"/>
<rect width="11.9048" height="11.8919" rx="5.94595" transform="matrix(0.999991 -0.00422876 -0.00422876 -0.999991 38.3829 12.6089)" fill="#666789" fill-opacity="0.38"/>
<rect width="11.9048" height="11.8919" rx="5.94595" transform="matrix(0.999991 -0.00422876 -0.00422876 -0.999991 73.6207 12.4597)" fill="#666789" fill-opacity="0.38"/>
<rect width="11.9048" height="11.8919" rx="5.94595" transform="matrix(0.999991 -0.00422876 -0.00422876 -0.999991 20.764 12.6833)" fill="#666789" fill-opacity="0.38"/>
<rect width="11.9048" height="11.8919" rx="5.94595" transform="matrix(0.999991 -0.00422876 -0.00422876 -0.999991 56.002 12.5342)" fill="#666789" fill-opacity="0.38"/>
<rect width="11.9048" height="11.8919" rx="5.94595" transform="matrix(0.999991 -0.00422876 -0.00422876 -0.999991 3.14514 12.7578)" fill="#666789" fill-opacity="0.38"/>
</svg>
