<svg width="304" height="297" viewBox="0 0 304 297" fill="none" xmlns="http://www.w3.org/2000/svg">
<rect x="83.2513" y="160.806" width="25" height="25" rx="12.5" transform="rotate(28.1574 83.2513 160.806)" fill="#54BAF3"/>
<rect x="118.989" y="178.8" width="25" height="25" rx="12.5" transform="rotate(28.1574 118.989 178.8)" fill="#54BAF3"/>
<rect x="153.784" y="198.557" width="25" height="25" rx="12.5" transform="rotate(28.1574 153.784 198.557)" fill="#54BAF3"/>
<rect x="189.05" y="217.433" width="25" height="25" rx="12.5" transform="rotate(28.1574 189.05 217.433)" fill="#54BAF3"/>
<rect x="189.349" y="174.492" width="25" height="25" rx="12.5" transform="rotate(28.1574 189.349 174.492)" fill="#54BAF3"/>
<rect x="154.083" y="155.616" width="25" height="25" rx="12.5" transform="rotate(28.1574 154.083 155.616)" fill="#54BAF3"/>
<rect x="118.816" y="136.741" width="25" height="25" rx="12.5" transform="rotate(28.1574 118.816 136.741)" fill="#54BAF3"/>
<rect x="83.5502" y="117.865" width="25" height="25" rx="12.5" transform="rotate(28.1574 83.5502 117.865)" fill="#54BAF3"/>
<rect x="119.115" y="93.7998" width="25" height="25" rx="12.5" transform="rotate(28.1574 119.115 93.7998)" fill="#54BAF3"/>
<rect x="154.382" y="112.676" width="25" height="25" rx="12.5" transform="rotate(28.1574 154.382 112.676)" fill="#54BAF3"/>
<rect x="185.24" y="129.192" width="25" height="25" rx="12.5" transform="rotate(28.1574 185.24 129.192)" fill="#54BAF3"/>
<rect x="189.947" y="88.6108" width="25" height="25" rx="12.5" transform="rotate(28.1574 189.947 88.6108)" fill="#54BAF3"/>
<rect x="154.68" y="69.7349" width="25" height="25" rx="12.5" transform="rotate(28.1574 154.68 69.7349)" fill="#54BAF3"/>
<rect x="189.302" y="47.4331" width="25" height="25" rx="12.5" transform="rotate(28.1574 189.302 47.4331)" fill="#54BAF3"/>
<rect x="47.9851" y="141.93" width="25" height="25" rx="12.5" transform="rotate(28.1574 47.9851 141.93)" fill="#54BAF3"/>
<rect x="188.751" y="260.374" width="25" height="25" rx="12.5" transform="rotate(28.1574 188.751 260.374)" fill="#54BAF3"/>
<rect x="82.9524" y="203.747" width="25" height="25" rx="12.5" transform="rotate(28.1574 82.9524 203.747)" fill="#54BAF3"/>
<rect x="153.485" y="241.498" width="25" height="25" rx="12.5" transform="rotate(28.1574 153.485 241.498)" fill="#54BAF3"/>
<rect x="47.6862" y="184.871" width="25" height="25" rx="12.5" transform="rotate(28.1574 47.6862 184.871)" fill="#54BAF3"/>
<rect x="118.219" y="222.622" width="25" height="25" rx="12.5" transform="rotate(28.1574 118.219 222.622)" fill="#54BAF3"/>
<rect x="12.42" y="165.995" width="25" height="25" rx="12.5" transform="rotate(28.1574 12.42 165.995)" fill="#54BAF3"/>
<rect x="85.0146" y="161.75" width="25" height="25" rx="12.5" transform="rotate(28.1574 85.0146 161.75)" fill="white"/>
<rect x="120.753" y="179.744" width="25" height="25" rx="12.5" transform="rotate(28.1574 120.753 179.744)" fill="white"/>
<rect x="155.547" y="199.501" width="25" height="25" rx="12.5" transform="rotate(28.1574 155.547 199.501)" fill="white"/>
<rect x="190.813" y="218.377" width="25" height="25" rx="12.5" transform="rotate(28.1574 190.813 218.377)" fill="white"/>
<rect x="191.112" y="175.436" width="25" height="25" rx="12.5" transform="rotate(28.1574 191.112 175.436)" fill="white"/>
<rect x="155.846" y="156.56" width="25" height="25" rx="12.5" transform="rotate(28.1574 155.846 156.56)" fill="white"/>
<rect x="120.58" y="137.685" width="25" height="25" rx="12.5" transform="rotate(28.1574 120.58 137.685)" fill="white"/>
<rect x="85.3135" y="118.809" width="25" height="25" rx="12.5" transform="rotate(28.1574 85.3135 118.809)" fill="white"/>
<rect x="120.879" y="94.7437" width="25" height="25" rx="12.5" transform="rotate(28.1574 120.879 94.7437)" fill="white"/>
<rect x="156.145" y="113.62" width="25" height="25" rx="12.5" transform="rotate(28.1574 156.145 113.62)" fill="white"/>
<rect x="187.003" y="130.136" width="25" height="25" rx="12.5" transform="rotate(28.1574 187.003 130.136)" fill="white"/>
<rect x="191.71" y="89.5547" width="25" height="25" rx="12.5" transform="rotate(28.1574 191.71 89.5547)" fill="white"/>
<rect x="156.444" y="70.6787" width="25" height="25" rx="12.5" transform="rotate(28.1574 156.444 70.6787)" fill="white"/>
<rect x="191.065" y="48.377" width="25" height="25" rx="12.5" transform="rotate(28.1574 191.065 48.377)" fill="white"/>
<rect x="49.7484" y="142.874" width="25" height="25" rx="12.5" transform="rotate(28.1574 49.7484 142.874)" fill="white"/>
<rect x="190.514" y="261.317" width="25" height="25" rx="12.5" transform="rotate(28.1574 190.514 261.317)" fill="white"/>
<rect x="84.7157" y="204.69" width="25" height="25" rx="12.5" transform="rotate(28.1574 84.7157 204.69)" fill="white"/>
<rect x="155.248" y="242.442" width="25" height="25" rx="12.5" transform="rotate(28.1574 155.248 242.442)" fill="white"/>
<rect x="49.4495" y="185.814" width="25" height="25" rx="12.5" transform="rotate(28.1574 49.4495 185.814)" fill="white"/>
<rect x="119.982" y="223.566" width="25" height="25" rx="12.5" transform="rotate(28.1574 119.982 223.566)" fill="white"/>
<rect x="14.1833" y="166.938" width="25" height="25" rx="12.5" transform="rotate(28.1574 14.1833 166.938)" fill="white"/>
<rect x="86.778" y="162.693" width="25" height="25" rx="12.5" transform="rotate(28.1574 86.778 162.693)" fill="#23239A" fill-opacity="0.7"/>
<rect x="122.516" y="180.688" width="25" height="25" rx="12.5" transform="rotate(28.1574 122.516 180.688)" fill="#23239A" fill-opacity="0.8"/>
<rect x="157.31" y="200.445" width="25" height="25" rx="12.5" transform="rotate(28.1574 157.31 200.445)" fill="#23239A" fill-opacity="0.9"/>
<rect x="192.576" y="219.321" width="25" height="25" rx="12.5" transform="rotate(28.1574 192.576 219.321)" fill="#23239A"/>
<rect x="192.875" y="176.38" width="25" height="25" rx="12.5" transform="rotate(28.1574 192.875 176.38)" fill="#23239A"/>
<rect x="157.609" y="157.504" width="25" height="25" rx="12.5" transform="rotate(28.1574 157.609 157.504)" fill="#23239A" fill-opacity="0.9"/>
<rect x="122.343" y="138.628" width="25" height="25" rx="12.5" transform="rotate(28.1574 122.343 138.628)" fill="#23239A" fill-opacity="0.8"/>
<rect x="87.0768" y="119.752" width="25" height="25" rx="12.5" transform="rotate(28.1574 87.0768 119.752)" fill="#23239A" fill-opacity="0.7"/>
<rect x="122.642" y="95.6875" width="25" height="25" rx="12.5" transform="rotate(28.1574 122.642 95.6875)" fill="#23239A" fill-opacity="0.8"/>
<rect x="157.908" y="114.563" width="25" height="25" rx="12.5" transform="rotate(28.1574 157.908 114.563)" fill="#23239A" fill-opacity="0.9"/>
<rect x="188.766" y="131.08" width="25" height="25" rx="12.5" transform="rotate(28.1574 188.766 131.08)" fill="#23239A"/>
<rect x="193.473" y="90.4985" width="25" height="25" rx="12.5" transform="rotate(28.1574 193.473 90.4985)" fill="#23239A"/>
<rect x="158.207" y="71.6226" width="25" height="25" rx="12.5" transform="rotate(28.1574 158.207 71.6226)" fill="#23239A" fill-opacity="0.9"/>
<rect x="192.828" y="49.3208" width="25" height="25" rx="12.5" transform="rotate(28.1574 192.828 49.3208)" fill="#23239A"/>
<rect x="51.5117" y="143.817" width="25" height="25" rx="12.5" transform="rotate(28.1574 51.5117 143.817)" fill="#23239A" fill-opacity="0.6"/>
<rect x="192.278" y="262.261" width="25" height="25" rx="12.5" transform="rotate(28.1574 192.278 262.261)" fill="#23239A"/>
<rect x="86.479" y="205.634" width="25" height="25" rx="12.5" transform="rotate(28.1574 86.479 205.634)" fill="#23239A" fill-opacity="0.7"/>
<rect x="157.011" y="243.386" width="25" height="25" rx="12.5" transform="rotate(28.1574 157.011 243.386)" fill="#23239A" fill-opacity="0.9"/>
<rect x="51.2128" y="186.758" width="25" height="25" rx="12.5" transform="rotate(28.1574 51.2128 186.758)" fill="#23239A" fill-opacity="0.6"/>
<rect x="121.745" y="224.51" width="25" height="25" rx="12.5" transform="rotate(28.1574 121.745 224.51)" fill="#23239A" fill-opacity="0.8"/>
<rect x="15.9467" y="167.882" width="25" height="25" rx="12.5" transform="rotate(28.1574 15.9467 167.882)" fill="#23239A" fill-opacity="0.5"/>
</svg>
